<svg version="1.1" id="Layer_1" xmlns="http://www.w3.org/2000/svg" x="0" y="0" viewBox="0 0 512 457" xml:space="preserve"><style>.st0{fill:#fff}.st1{fill:#ada075}</style><path class="st0" d="M144.9 183.6l11.5-2.7c1.7-.4 3.5-.8 5.4-1.1s3.7-.5 5.5-.4 3.4.5 5 1.2 3 1.9 4.1 3.5c1.2 1.6 2.1 3.8 2.8 6.6.7 2.7 1.1 6.2 1.1 10.4v21.1c0 4.2-.3 7.9-1.1 10.9-.7 3.1-1.6 5.7-2.8 7.9-1.2 2.2-2.6 4-4.1 5.4-1.6 1.4-3.3 2.6-5 3.6-1.8.9-3.6 1.7-5.5 2.2s-3.6 1-5.4 1.4l-11.5 2.7v-72.7zm13.8 61.8c2-.5 3.6-1.1 4.9-1.9 1.3-.8 2.3-2 3.1-3.4.7-1.5 1.3-3.4 1.6-5.7.3-2.3.4-5.2.4-8.6v-22.6c0-3.4-.1-6.2-.4-8.4-.3-2.2-.8-3.8-1.6-4.9-.8-1.1-1.8-1.8-3.1-2s-2.9-.1-4.9.4l-2.8.7v57l2.8-.6zM188.4 173.4l11-2.6v72.7l-11 2.6v-72.7zM224.8 238.2c-.8.2-1.8.3-3 .4-1.1.1-2.3 0-3.5-.3s-2.4-.9-3.6-1.7c-1.2-.8-2.2-2-3.1-3.6-.9-1.6-1.7-3.6-2.3-6.1s-.8-5.6-.8-9.2v-25.8c0-3.7.3-6.9.9-9.6.6-2.7 1.4-5.1 2.4-7.1s2.1-3.7 3.4-5.1c1.3-1.4 2.6-2.5 4-3.4s2.8-1.6 4.1-2.1c1.4-.5 2.6-.9 3.8-1.1 2.9-.7 5.4-.9 7.5-.6 2 .3 3.7 1 5 2.2 1.3 1.1 2.2 2.5 2.7 4.3.6 1.7.8 3.7.8 5.8 0 1.6-.1 3-.3 4.4s-.4 2.9-.7 4.5l-8.8 2.1v-3.4c0-8-2.1-11.5-6.4-10.5-1.2.3-2.2.7-3 1.3s-1.6 1.4-2.1 2.5c-.6 1.1-1 2.4-1.3 4.1-.3 1.6-.4 3.6-.4 5.9v33c0 2.3.1 4.1.4 5.6.3 1.4.7 2.6 1.2 3.3.6.8 1.3 1.3 2.1 1.4.8.2 1.8.1 3-.1 1.2-.3 2.3-.9 3.2-1.7s1.6-1.9 2.2-3.1c.6-1.2 1-2.6 1.3-4.2.3-1.6.4-3.2.4-5v-9.5l-5.7 1.3v-7.2l16.4-3.9v36.8l-7.3 1.7-1.2-6.6c-1.4 3-3 5.3-4.8 6.9-1.9 1.8-4 2.8-6.5 3.4zM252.9 158.2l11-2.6v72.8l-11 2.6v-72.8zM281.4 160.1l-11.7 2.8v-8.7l34.4-8.1v8.7l-11.7 2.8v64.1l-11 2.6v-64.2zM317.8 142.9l12.7-3 13.5 69.6-11.2 2.6-2-12.6-13.3 3.1-1.9 13.5-11.2 2.6 13.4-75.8zm11.7 48.6l-5.1-35-.5.1-5.1 37.5 10.7-2.6zM349.3 135.4l11-2.6v64.1l15-3.6v8.7l-26.1 6.2v-72.8h.1z"/><g><path class="st0" d="M150.7 139.2l-6.2 1.5v-4.6l18.1-4.3v4.6l-6.2 1.4v33.8l-5.8 1.4.1-33.8zM165.7 131.1l5.8-1.4v16.1l6.9-1.6v-16.1l5.8-1.4V165l-5.8 1.4v-17.7l-6.9 1.6V168l-5.8 1.4v-38.3zM189.9 125.3l14.2-3.4v4.6l-8.4 2V140l6.5-1.5v4.6l-6.5 1.5v13.1l8.6-2v4.6l-14.4 3.4v-38.4z"/></g><g><path class="st0" d="M144.2 267.8l27-6.4v8.7l-15.9 3.8v21.8l12.3-2.9v8.7l-12.3 2.9v24.9l16.4-3.9v8.7l-27.4 6.5v-72.8h-.1zM177.8 259.9l14.4-3.4 7 26.5c.7 2.9 1.3 5.8 1.7 8.5s.8 5.3 1.2 7.7l.3-.1c.4-2.6.8-5.3 1.2-8.3.4-2.9 1-6 1.7-9.3l7.2-29.9 14.1-3.3v72.8l-10.3 2.4v-24c0-3.7 0-7.2.1-10.7.1-3.4.2-6.6.3-9.5s.2-5.4.4-7.6.3-4 .4-5.3l-.8.2-11 50.1-7 1.7-11.1-44.9-.8.2c.1 1.2.2 2.9.4 5.1.1 2.2.3 4.6.4 7.5.1 2.8.2 5.9.3 9.3s.1 6.9.1 10.6v24.1l-10.3 2.4v-72.8h.1zM237.5 245.8l11.2-2.6c1.7-.4 3.4-.7 5.1-1 1.8-.3 3.5-.5 5.1-.5 1.7 0 3.3.1 4.8.5s2.8 1 3.9 2 2 2.3 2.7 3.9 1 3.7 1 6.3v3.5c0 1.9-.3 3.8-.8 5.5-.6 1.7-1.3 3.3-2.2 4.8-.9 1.4-2 2.7-3.1 3.8-1.2 1.1-2.4 1.9-3.6 2.5v.3c3.6-.2 6.3.9 8.2 3.2 1.8 2.3 2.7 5.7 2.7 10v3.7c0 2.6-.3 5-.9 7.1s-1.4 3.9-2.5 5.6c-1.1 1.6-2.3 3.1-3.8 4.3-1.5 1.2-3 2.3-4.8 3.2-1.7.9-3.6 1.7-5.5 2.3-2 .6-4 1.2-6 1.7l-11.6 2.7.1-72.8zm12.9 28.1c1.5-.3 2.8-.8 4-1.5 1.2-.6 2.3-1.4 3.1-2.4.9-1 1.5-2.1 2-3.4.4-1.3.7-2.8.7-4.5v-3c0-1.7-.2-3.2-.5-4.4-.3-1.2-.9-2.2-1.7-2.9-.8-.7-1.8-1.2-3.1-1.3-1.3-.2-2.8 0-4.6.4l-2.1.5v23.1l2.2-.6zm1.1 33.7c1.5-.3 2.8-.8 4-1.5 1.2-.7 2.2-1.5 3.1-2.5s1.5-2.2 2-3.6.7-2.9.7-4.6v-5.7c0-1.7-.2-3.2-.5-4.4-.3-1.2-.9-2.2-1.7-2.9-.8-.7-1.8-1.2-3-1.3-1.3-.2-2.8-.1-4.6.4l-3.2.7v26.2l3.2-.8zM288.4 233.8l12.7-3 13.5 69.6-11.2 2.6-2-12.6-13.3 3.1-1.9 13.5-11.2 2.6 13.4-75.8zm11.7 48.7l-5.1-35-.5.1-5.1 37.5 10.7-2.6zM317 285.1c0-1.6.1-3 .3-4.4.2-1.4.5-2.9.8-4.5l8.6-2v3.5c0 2 .1 3.7.4 5.1.2 1.4.6 2.6 1.2 3.5s1.3 1.5 2.2 1.8c.9.3 2 .3 3.4 0 2.1-.5 3.7-1.5 4.8-2.9 1.1-1.4 1.7-3.2 1.7-5.4 0-1.1-.1-2.2-.2-3.1-.2-.9-.4-1.8-.8-2.6s-.9-1.7-1.6-2.6c-.6-.9-1.5-1.8-2.5-2.9l-11.5-11c-2-2.1-3.6-4.4-4.7-6.8s-1.7-5.1-1.7-8.1c0-2.4.4-4.7 1.1-6.9.7-2.2 1.8-4.2 3.2-6 1.4-1.8 3.2-3.3 5.3-4.6 2.1-1.3 4.5-2.3 7.1-2.9 3.2-.8 5.9-.9 8-.5 2.2.4 3.9 1.2 5.1 2.4 1.3 1.2 2.2 2.6 2.7 4.3.5 1.7.8 3.5.8 5.3 0 1.6-.1 3-.4 4.4-.2 1.4-.5 2.9-.8 4.6l-8.5 2v-3.5c0-3.9-.6-6.7-1.7-8.5s-2.9-2.4-5.4-1.8c-2.1.5-3.6 1.4-4.6 2.8s-1.5 3.1-1.5 5c0 1 .1 1.9.3 2.7.1.8.4 1.5.7 2.1.3.6.7 1.2 1.1 1.8.4.6.9 1.1 1.5 1.7l12.8 12.5c2.3 2.5 4.1 5 5.4 7.5 1.2 2.5 1.9 5.3 1.9 8.4 0 2.6-.4 5-1.2 7.3-.8 2.3-2 4.3-3.5 6.1-1.5 1.8-3.3 3.3-5.4 4.6-2.1 1.3-4.5 2.2-7.2 2.9-3.3.8-6 1-8.2.6s-3.9-1.1-5.2-2.3c-1.3-1.1-2.2-2.6-2.7-4.3-.9-1.6-1.1-3.4-1.1-5.3zM356 275.9c0-1.6.1-3 .3-4.4.2-1.4.5-2.9.8-4.5l8.6-2v3.5c0 2 .1 3.7.4 5.1.2 1.5.6 2.6 1.2 3.5s1.3 1.5 2.2 1.8c.9.3 2 .3 3.4 0 2.1-.5 3.7-1.4 4.8-2.9 1.1-1.4 1.7-3.2 1.7-5.4 0-1.1-.1-2.2-.2-3.1-.2-.9-.4-1.8-.8-2.6-.4-.9-.9-1.7-1.5-2.6-.7-.9-1.5-1.8-2.5-2.9l-11.5-11c-2-2.1-3.6-4.4-4.7-6.8s-1.7-5.1-1.7-8.1c0-2.4.4-4.7 1.1-6.9.8-2.2 1.8-4.2 3.3-6 1.4-1.8 3.2-3.3 5.3-4.7 2.1-1.3 4.4-2.3 7.1-2.9 3.2-.8 5.9-.9 8-.5 2.2.4 3.8 1.2 5.1 2.4 1.3 1.2 2.2 2.6 2.7 4.3s.8 3.5.8 5.3c0 1.6-.1 3-.4 4.4-.2 1.4-.5 2.9-.8 4.6l-8.5 2v-3.4c0-3.9-.6-6.7-1.7-8.5s-2.9-2.4-5.4-1.8c-2.1.5-3.6 1.4-4.7 2.8-1 1.4-1.5 3.1-1.5 5 0 1 .1 1.9.2 2.7.2.8.4 1.5.7 2.1.3.6.7 1.2 1.1 1.8.4.6.9 1.1 1.4 1.7l12.7 12.6c2.3 2.5 4.1 5 5.4 7.5 1.2 2.5 1.9 5.3 1.9 8.4 0 2.6-.4 5-1.2 7.3-.8 2.3-2 4.3-3.5 6.1-1.5 1.8-3.3 3.3-5.5 4.6-2.1 1.3-4.5 2.2-7.2 2.9-3.3.8-6 1-8.2.6s-3.9-1.1-5.2-2.3c-1.3-1.1-2.2-2.6-2.7-4.3-.6-1.6-.8-3.5-.8-5.4zM406.4 254.5l-14.7-45.1 11.1-2.6 8.9 32.7.5-.1 8.8-36.9 11.1-2.6-14.7 52v24.2l-11 2.6v-24.2z"/></g><g><path class="st1" d="M0 157.2l61.3-15.1v-32.8L512 0v299.7l-402.6 97.6v32.9L0 457V157.2zm8.5 289l87.2-21.3-34.4-16.8V150.9l-52.8 13v282.3zm61.3-47.9l433.7-105.2V10.8L69.8 116v282.3z"/></g><g><path class="st1" d="M62.9 110.6v32.8L1.6 158.5V455l106.3-25.9v-32.9l402.5-97.7V2.1L62.9 110.6zm-56 337.6V162.6l56-13.8V407.1l37.5 18.3-93.5 22.8zm498.2-153.9l-436.9 106V114.8l436.9-106v285.5z"/></g></svg>